<svg width="35" height="35" viewBox="0 0 35 35" fill="none" xmlns="http://www.w3.org/2000/svg">
    <rect width="35" height="35" rx="8" fill="#121212" fill-opacity="0.75"/>
    <g clip-path="url(#clip0_1764_245)">
        <path d="M24.7803 23.7198L23.263 22.2025C24.3883 20.8948 25.0047 19.2253 24.9993 17.5C24.9993 14.4318 23.1453 11.9103 20.5 10.75V12.25C22.2902 13.2895 23.4993 15.2853 23.4993 17.5C23.496 18.8325 23.0554 20.127 22.2452 21.1848L21.2815 20.221C21.733 19.402 22 18.3925 22 17.5C22 16.1718 21.4187 14.575 20.5 13.75V19.4395L19 17.9395V11.5C18.9999 11.3644 18.9631 11.2313 18.8933 11.1149C18.8236 10.9985 18.7236 10.9033 18.604 10.8392C18.4844 10.7752 18.3497 10.7448 18.2142 10.7513C18.0787 10.7578 17.9474 10.8009 17.8345 10.876L14.2952 13.2348L11.2803 10.2198L10.2197 11.2803L23.7197 24.7803L24.7803 23.7198ZM17.5 12.901L16.4384 13.6087L15.3767 14.3163L17.5 12.901ZM11.5 21.25H13.5227L17.8337 24.124C17.9468 24.1991 18.0781 24.2423 18.2137 24.2489C18.3493 24.2555 18.4842 24.2253 18.604 24.1615C18.7237 24.0975 18.8238 24.0021 18.8935 23.8856C18.9632 23.7691 19.0001 23.6358 19 23.5V22.0908L17.5 20.5908L14.5415 17.975L14.1662 19.876C14.1475 19.8633 14.5 20 14.1048 19.8513C14.0162 19.8031 13.6004 20.0092 13.5 20C13.476 19.9978 17.75 22.3408 14.5 20L14.5415 17.975L11.5 15.25L17.8345 20.9253L10.8265 13.9173C10.5789 14.0412 10.3706 14.2314 10.2247 14.4667C10.0787 14.702 10.001 14.9732 10 15.25V19.75C10 20.5773 10.6727 21.25 11.5 21.25Z" fill="white"/>
    </g>
    <defs>
        <clipPath id="clip0_1764_245">
            <rect width="15" height="15" fill="white" transform="translate(10 10)"/>
        </clipPath>
    </defs>
</svg>

