<svg width="18" height="15" viewBox="0 0 18 15" fill="none" xmlns="http://www.w3.org/2000/svg">
<g clip-path="url(#clip0_185_52)">
<path d="M12.6514 15C15.5905 13.7108 17.6505 10.9092 17.6505 7.5C17.6505 4.09083 15.5905 1.28917 12.6514 0V1.66667C14.6405 2.82167 15.9839 5.03917 15.9839 7.5C15.9839 9.96083 14.6405 12.1783 12.6514 13.3333V15Z" fill="white"/>
<path d="M12.6515 3.33339V11.6667C13.6724 10.7501 14.3182 8.97589 14.3182 7.50006C14.3182 6.02422 13.6724 4.25006 12.6515 3.33339ZM2.65153 11.6667H4.89903L9.68903 14.8601C9.81468 14.9435 9.96055 14.9914 10.1112 14.9988C10.2619 15.0061 10.4117 14.9726 10.5449 14.9017C10.6779 14.8305 10.789 14.7245 10.8665 14.5951C10.944 14.4656 10.9849 14.3176 10.9849 14.1667V0.833391C10.9848 0.682654 10.9438 0.534761 10.8663 0.405463C10.7889 0.276165 10.6778 0.170305 10.5449 0.0991568C10.412 0.0280088 10.2623 -0.00576232 10.1117 0.00144034C9.96115 0.008643 9.81535 0.0565496 9.68986 0.140058L4.89903 3.33339H2.65153C1.73236 3.33339 0.984863 4.08089 0.984863 5.00006V10.0001C0.984863 10.9192 1.73236 11.6667 2.65153 11.6667ZM2.65153 5.00006L3.48486 5.99994C3.51236 5.99994 5.20236 4.98672 5.22903 4.98422C5.33987 4.97292 5.44744 4.94008 5.5457 4.88756C5.56736 4.87506 5.5932 4.87339 5.61403 4.86006L9.3182 2.39006L2.48486 5.49994L4.48486 8.99994L5.61403 10.1401C5.5932 10.1259 5.56736 10.1234 5.5457 10.1126C5.44729 10.059 7.98486 6.99994 5.22736 10.0159C5.2007 10.0134 6.74653 8.81298 5.4132 9.8131L6.98486 6.99994L2.65153 5.00006Z" fill="white"/>
</g>
<defs>
<clipPath id="clip0_185_52">
<rect width="16.6667" height="15" fill="white" transform="translate(0.984863)"/>
</clipPath>
</defs>
</svg>
